<svg xmlns="http://www.w3.org/2000/svg" style="display: none;">
  <symbol id="icon-message" viewBox="0 0 512 512">
    <path d="m336 224l-160 0c-9 0-16 7-16 16 0 9 7 16 16 16l160 0c9 0 16-7 16-16 0-9-7-16-16-16z m80-224l-320 0c-53 0-96 43-96 96l0 208c0 53 43 80 96 80l179 0 141 128 0-128c53 0 96-43 96-96l0-192c0-53-43-96-96-96z m64 288c0 35-29 64-64 64l-32 0 0 89-96-89-192 0c-36 0-64-13-64-48l0-208c0-36 28-64 64-64l320 0c35 0 64 28 64 64z m-112-160l-224 0c-9 0-16 7-16 16 0 9 7 16 16 16l224 0c9 0 16-7 16-16 0-9-7-16-16-16z"/>
  </symbol>
  <symbol id="icon-paperclip" viewBox="0 0 512 512">
    <path d="m425 163l-23 23-144 143-61 60c-38 37-99 37-137 0-38-38-38-98 0-136l61-60 53-52 41-40 5-5 23-23 22-22c1-1 1-1 1-1 25-25 66-25 91 0 25 25 25 65 0 90 0 0 0 0 0 1l-46 45-5 5-41 40-25 24-24 25-25 24-40 40c-12 12-33 12-46 0-12-13-12-33 0-46l24-22 16-17 25-24 25-25 48-47 23-23 22-22-23-22-16 15-25 26-27 26-35 34-28 29-29 27-22 23c-25 25-25 65 0 90 26 24 65 24 91 0l51-50 29-29 80-79 23-22 22-23c38-37 38-98 0-135-37-37-98-37-136 0l-23 23-23 22-160 158c-50 50-49 130 1 180 50 49 131 49 182 0l205-203 23-22z"/>
</symbol>
</svg>
